<svg width="716" height="1024" xmlns="http://www.w3.org/2000/svg" xmlns:xlink="http://www.w3.org/1999/xlink"><defs><linearGradient x1="43.228%" y1="100%" x2="43.228%" y2=".954%" id="b"><stop stop-color="#D5E8FF" offset="0%"/><stop stop-color="#FFF2F2" offset="100%"/></linearGradient><linearGradient x1="138.594%" y1="41.438%" x2="0%" y2="41.438%" id="c"><stop stop-color="#FBF1F3" stop-opacity="0" offset="0%"/><stop stop-color="#DFE4F1" offset="100%"/></linearGradient><linearGradient x1="50%" y1="0%" x2="50%" y2="31.162%" id="e"><stop stop-opacity=".035" offset="0%"/><stop stop-opacity="0" offset="100%"/></linearGradient><linearGradient x1="87.763%" y1="0%" x2="26.578%" y2="67.054%" id="f"><stop stop-color="#37357D" offset="0%"/><stop stop-color="#191847" offset="100%"/></linearGradient><linearGradient x1="106.582%" y1="50%" x2="45.02%" y2="63.426%" id="g"><stop stop-color="#D2D6BD" offset="0%"/><stop stop-color="#99A169" offset="100%"/></linearGradient><linearGradient x1="89.884%" y1="50%" x2="32.374%" y2="48.16%" id="h"><stop stop-color="#E1EBFA" offset="0%"/><stop stop-color="#BFD3F3" offset="100%"/></linearGradient><linearGradient x1="89.884%" y1="50%" x2="32.374%" y2="48.686%" id="i"><stop stop-color="#E1EBFA" offset="0%"/><stop stop-color="#BFD3F3" offset="100%"/></linearGradient><linearGradient x1="89.884%" y1="50%" x2="32.374%" y2="48.712%" id="j"><stop stop-color="#E1EBFA" offset="0%"/><stop stop-color="#BFD3F3" offset="100%"/></linearGradient><linearGradient x1="89.884%" y1="50%" x2="32.374%" y2="48.418%" id="k"><stop stop-color="#E1EBFA" offset="0%"/><stop stop-color="#BFD3F3" offset="100%"/></linearGradient><linearGradient x1="89.884%" y1="50%" x2="32.374%" y2="48.683%" id="l"><stop stop-color="#E1EBFA" offset="0%"/><stop stop-color="#BFD3F3" offset="100%"/></linearGradient><linearGradient x1="89.884%" y1="50%" x2="32.374%" y2="48.568%" id="m"><stop stop-color="#E1EBFA" offset="0%"/><stop stop-color="#BFD3F3" offset="100%"/></linearGradient><linearGradient x1="21.158%" y1="11.585%" x2="32.222%" y2="33.215%" id="w"><stop stop-color="#FFF" offset="0%"/><stop stop-color="#FFF" stop-opacity="0" offset="100%"/></linearGradient><linearGradient x1="13.892%" y1="20.974%" x2="58.462%" y2="55.66%" id="x"><stop stop-color="#FFF" offset="0%"/><stop stop-color="#FFF" stop-opacity="0" offset="100%"/></linearGradient><linearGradient x1="13.892%" y1="8.048%" x2="52.936%" y2="35.872%" id="y"><stop stop-color="#FFF" offset="0%"/><stop stop-color="#FFF" stop-opacity="0" offset="100%"/></linearGradient><path d="M0 0h587v1024H0c154.319-90.719 231.478-172.772 231.478-246.16S154.318 659.75 0 643.738V0z" id="a"/><path d="M108.85 51.632L73.873 39.744a11 11 0 01-5.386-3.985L43.025.416a1 1 0 00-1.801.44l-.503 3.439a7.847 7.847 0 01-6.756 6.647l-23.868 3.093c-6.024.78-10.276 6.297-9.495 12.322a11 11 0 00.147.865l2.036 9.616a13 13 0 009.502 9.903l17.116 4.37a11 11 0 018.235 9.675l5.023 55.976c4.042 2.848 8.488 2.848 13.339 0 3.06-1.796-.187-26.95 5.131-32.15 2.231-2.18 6.21 11.981 20.201 16.436 5.357 1.706 5.775 4.57 1.256 8.59a4.515 4.515 0 003.617 7.846l15.734-2.165a11 11 0 008.554-6.434l3.871-8.72a11 11 0 00.814-2.766l3.085-19.74a11 11 0 00-.366-4.968l-1.091-3.506a8.1 8.1 0 013.42-9.264l6.252-3.934a11 11 0 013.578-1.45l15.899-3.37a3.156 3.156 0 002.31-4.17 4.137 4.137 0 00-4.796-2.615l-18.999 4.285a11 11 0 00-1.281.372l-7.098 2.536a11 11 0 01-7.241.057z" id="n"/><path id="q" d="M0 0h109v143H68.746l-9.025-13.383H45.663l-16.603-7.554v-12.472L20 105.273 8.282 115.284 0 109.591V90.684L8.282 73 0 61.395V41.05z"/><path id="s" d="M.126 0h108.661v48H.126z"/><path d="M13.726 13.548l1.173 6.586c-4.321 2.238-7.313 4.11-8.977 5.62C4.26 27.261 2.285 29.892 0 33.646l8.145 7.648 15.477.439 7.35-6.508c.12-4.967-.38-9.407-1.503-13.319-1.684-5.868-1.575-18.876-1.575-21.33 0-1.637-5.192 1.25-15.576 8.663l1.408 4.308z" id="u"/><filter x="-37.2%" y="-53%" width="174.3%" height="192.5%" filterUnits="objectBoundingBox" id="o"><feOffset dy="-8" in="SourceAlpha" result="shadowOffsetOuter1"/><feGaussianBlur stdDeviation="17" in="shadowOffsetOuter1" result="shadowBlurOuter1"/><feColorMatrix values="0 0 0 0 0.792156863 0 0 0 0 0.854901961 0 0 0 0 0.956862745 0 0 0 0.760653409 0" in="shadowBlurOuter1"/></filter></defs><g fill="none" fill-rule="evenodd"><g transform="translate(137)"><mask id="d" fill="#fff"><use xlink:href="#a"/></mask><use fill="url(#b)" xlink:href="#a"/><path fill="url(#c)" mask="url(#d)" d="M-68 0h202v668H-68z"/><path fill="url(#e)" mask="url(#d)" d="M-61 560h727v491H-61z"/><path fill="url(#e)" mask="url(#d)" d="M-494 779h727v491h-727z"/></g><path d="M225.386 344.614c3.447 12.703 7.939 41.254 3.355 45.733h-29a79.223 79.223 0 01-.009-.154c-10.748-1.19-19.108-10.303-19.108-21.369v-21c0-11.874 9.626-21.5 21.5-21.5h2c10.783 0 19.712 7.939 21.262 18.29z" fill="#191847"/><path d="M191.886 364.814c-4.608-5.408-7.727-12.037-7.206-19.464 1.502-21.4 31.292-16.693 37.087-5.892 5.795 10.801 5.106 38.2-2.383 40.13-2.987.77-9.35-1.116-15.825-5.02l4.065 28.756h-24l8.262-38.51z" fill="#B28B67"/><path d="M142.374 58.2c1.105 11.877.662 25.441-2.633 28.661h-29c-1.616-28.073 14-17.202 14-43.634.974-.951 1.894-1.893 2.804-2.705l-.032-.777c5.021-10.28 11.392-15.42 19.112-15.42 11.58 0 15.235 5.388 18.347 9.962-2.327 7.985-11.358 9.17-19.383 14.147a5.5 5.5 0 10-3.216 9.765z" fill="url(#f)" transform="translate(56 303)"/><path d="M145.032 584.412c23.989 6.71 44.686 10.065 62.091 10.065 17.406 0 33.572-5.166 48.5-15.5-23.475-6.887-42.808-10.33-58-10.33-15.19 0-32.72 5.255-52.591 15.765z" fill="#747D43"/><path d="M214.91 606.685a5.657 5.657 0 01-.44-1.198c-2.149-8.808-41.979-105.868-45.02-123.093l57.396 7.048c2.311 13.096 9.966 94.438 10.471 110.541 4.657 25.876 10.634 108.56 11.975 114.401 1.412 6.146-11.347 10.8-13.659 3.175-3.677-12.135-11.897-45.47-14.91-65.578-2.826-18.85-4.935-35.757-5.814-45.296z" fill="#997659"/><path d="M78.058 651.572c-6.064 1.731-16.453-12.207-8.959-14.914 11.925-4.307 34.426-18.42 55.08-26.605 15.343-6.08 32.604-14.118 42.421-15.679-.832-27.576-4.634-93.756-2.142-108.05h51.166c-2.39 13.707-22.59 113.718-26.345 123.729-1.191 3.574-4.746 5.153-8.698 5.265-23.482 5.935-96.63 34.571-102.523 36.254z" fill="#B28B67"/><path d="M71.291 634.089c-3.135-.584-5.433-.746-6.893-.489-1.776.313-4.315 1.066-7.618 2.258l9.794 55.545c5.027.602 7.456-.685 7.288-3.862-.168-3.177-.28-5.821-.336-7.932l6.957-27.846a1 1 0 00-.755-1.22l-4.318-.949c-1.851-2.642-2.935-4.863-3.253-6.663-.257-1.462-.023-3.586.704-6.371a2 2 0 00-1.57-2.471z" fill="#E4E4E4"/><path d="M108.624 183.324c22.547-6.45 43.88-6.45 64 0 7 31.938 24.009 44.614 27 93.58-34 16.893-76-12.05-111 4.426-10-23.045 4-78.541 20-98.006z" fill="url(#g)" transform="translate(56 303)"/><path d="M261.624 446.635l39.483-5.386c7.898-4.393 15.164-7.367 21.797-8.922 1.867-.054 4.837.624.413 4.312-4.424 3.689-8.913 7.768-8.125 9.737.788 1.968 4.903 1.236 5.584 4.263.455 2.018-6.223 2.346-20.031.984l-32.037 12.701-7.084-17.689zm-124.03 9.139l21.897.082c-24.011 54.034-36.53 82.325-37.56 84.874-2.313 5.734 2.583 14.468 4.677 19.161-6.82 3.052-6.093-8.25-14.696-4.247-7.853 3.653-13.827 10.273-22.9 4.675-1.115-.689-2.337-3.28.616-5.305 7.358-5.045 17.961-13.875 19.394-16.782 1.953-3.963 11.477-31.45 28.572-82.458z" fill="#997659"/><path d="M197.573 386.324l17.145 1.142c4.223 38.202 27.222 62.331 78.717 54.162l6.841 49.195c-48.13 6.22-90.34-13.049-98.99-65.22-2.24-13.506-4.007-27.561-3.713-39.279z" fill="#E4D9D9"/><path d="M189.115 381.34l25.976 5.95c0 44.679 14.233 73.185 21.533 106.034h-70.157c-.988 11.351-1.595 23.018-1.911 35h-52.53c11.903-63.336 37.028-112.336 75.374-147h1.7l.015.016z" fill="#FEF2F2"/><path d="M232.302 718.726c-1.119 2.987-1.678 5.221-1.678 6.704 0 1.803.3 4.435.901 7.894h56.402c1.465-4.845.62-7.461-2.538-7.848a312.37 312.37 0 01-7.87-1.046l-26.215-11.687a1 1 0 00-1.332.532l-1.685 4.088c-2.923 1.364-5.299 2.046-7.127 2.046-1.485 0-3.535-.6-6.152-1.8a2 2 0 00-2.706 1.117z" fill="#E4E4E4"/><path d="M177.536 429.583c-1.808 27.842-.744 49.089 3.19 63.741h-14.259c1.958-22.486 5.413-43.733 11.07-63.74z" fill-opacity=".1" fill="#000"/><path d="M656.77 600.264c23.693-.691 43.561-1.026 59.604-1.005-21.027-2.95-56.81-10.817-107.347-23.599 84.638-1.789 129.432.058 134.38 5.54 7.262 8.046-6.137 10.225-11.732 18.21 21.23.425 32.846 1.745 34.845 3.96.117.129.163.391.143.77 2.147.61 3.557 1.289 4.23 2.034 7.422 8.223-6.736 10.318-12.09 18.746-5.353 8.427 23.734.642 0 .642-.523 0-1.074-.01-1.652-.028-5.023 8.171-11.252 15.463-16.68 15.466-13.442.007-68.599-12.537-165.471-37.63 22.869-1.022 43.693-1.853 62.472-2.494-.32-.08-.639-.16-.959-.242 7.027-.148 13.78-.272 20.257-.37z" fill="url(#h)" opacity=".476"/><path d="M461 765c8.468 1.858 13.314 3.855 14.537 5.99 2.74 4.783-4.358 14.01 3.049 14.01h46.66c9.544 0 9.613-9.497-3.923-14.01-11.742-3.914-36.223-2.929-42.737-2.929-9.349 0-15.21-1.02-17.586-3.061z" fill="url(#i)"/><path d="M480.867 717.145c4.665 8.095-16.335 11.625 13.1 18.42 29.436 6.796 41.188 5.294 71.534 5.294 16.249 0 16.366-16.076-6.68-23.714-19.992-6.626-61.673-4.958-72.764-4.958-23.876 0-8.315-.463-5.19 4.958z" fill="url(#j)"/><path d="M426.335 739.614c18.61 0 21.868 3.386 39.747 3.386 9.573 0 12.043-7.479-1.534-12.028-7.776-2.606-32.697-4.965-42.75-4.972-5.174-.003-2.893 13.614 4.537 13.614z" fill="url(#k)"/><path d="M558.717 764h33.442c6.84 0 6.89-6.498-2.811-9.585-3.875-1.233-12.382-2.446-19.288 0-8.095 2.867-14.208 9.585-11.343 9.585z" fill="url(#l)"/><path d="M586.331 735h23.237c6.788 0-2.79-12.896-2.79-9.399 0 1.263-20.294-1.135-27.148 1.263-4.425 1.549 1.259 2.294 4.064 4.058 2.288 1.438 1.281 4.078 2.637 4.078z" fill="url(#m)"/><path d="M500 656l-6.97 31.855a4 4 0 01-3.907 3.145h-3.139a4 4 0 01-3.898-4.897L489.011 656H500z" fill="#E4D4D0"/><path d="M499 693.288v18.158c-.808 5.703-4.022 8.554-9.642 8.554-5.62 0-4.186-12 4.303-36l5.339 9.288z" fill="#FFF"/><g transform="translate(433 612)"><mask id="p" fill="#fff"><use xlink:href="#n"/></mask><use fill="#000" filter="url(#o)" xlink:href="#n"/><use fill="#FFF" xlink:href="#n"/><circle fill="#4E4E4E" mask="url(#p)" cx="-.5" cy="16.701" r="10.5"/><circle fill="#D1A2A2" mask="url(#p)" cx="38.5" cy="23.113" r="10.5"/><ellipse fill="#D1A2A2" mask="url(#p)" transform="rotate(21 92.205 46.394)" cx="92.205" cy="46.394" rx="10.5" ry="6"/><circle fill="#000" mask="url(#p)" cx="35" cy="21.613" r="2"/></g><rect fill="#83432E" transform="rotate(58 487.036 659.047)" x="483.536" y="634.547" width="7" height="49" rx="2"/><path d="M464.945 757c16.857 7.118 31.163 10.677 42.917 10.677 17.632 0-14.938 7.62-25.394 14.674-10.457 7.054-3.634-10.678-17.523-12.676-9.26-1.332-9.26-5.557 0-12.675z" fill="#FFF"/><path d="M573.132 723c7.6 3.243 14.052 4.864 19.352 4.864 7.95 0 .584 4.222-4.131 7.435-4.716 3.214-8.958-5.615-15.221-6.525-4.176-.607-4.176-2.531 0-5.774z" fill="#99A169"/><path d="M454.86 708.412c-5.021-.805-9.115-.812-12.28-.023-4.747 1.184-.976-2.434 1.36-5.055 2.338-2.62 6.185 2.02 10.06 1.63 2.584-.259 2.87.89.86 3.448z" fill="#FFF"/><path d="M566.224 709.528c3.937 1.408 7.594 2.17 10.97 2.289 2.227.077 1.584-1.37 2.523-2.289 1.195-1.17 3.54-2.015 2.283-3.528-2.244-2.7-13.572.524-17.432 0-2.572-.35-2.02.827 1.656 3.528z" fill="#DEB552"/><path d="M546.89 752.628c10.27 1.615 18.604 1.565 25.003-.15 9.6-2.571-6.964 6.541-11.575 12.104-4.611 5.563-3.616-5.582-11.484-4.699-5.246.588-5.894-1.83-1.944-7.255z" fill="#3A2B28"/><path d="M424.23 724.1c9.184 4.87 17.08 7.537 23.69 8 9.914.693-8.714 3.916-14.885 7.675-6.171 3.759-11.462-2.168-19.189-3.895-5.151-1.152-1.69-5.078 10.384-11.78z" fill="#83432E"/><path stroke="#D3BDAB" stroke-width="6" stroke-linecap="round" d="M576 603l38.988-233L646 603"/><path d="M585.5 326.152h58.71" stroke="#D3BDAB" stroke-width="8" stroke-linecap="square"/><path d="M550.5 477.152h120.75" stroke="#D3BDAB" stroke-width="8" stroke-linecap="round"/><path d="M615.105 348.5v227.201" stroke="#D3BDAB" stroke-width="6"/><g transform="translate(555 330)"><mask id="r" fill="#fff"><use xlink:href="#q"/></mask><use fill="#FFF" xlink:href="#q"/><g mask="url(#r)"><g transform="translate(-5 -15)"><path stroke="#979797" fill="#99A169" d="M6.5 8.5h108v78H6.5z"/><path stroke="#979797" fill="#83432E" d="M6.5 77.5h108v47H6.5z"/><g transform="translate(6 121)"><mask id="t" fill="#fff"><use xlink:href="#s"/></mask><use fill="#563F33" xlink:href="#s"/><path d="M34.655 25.191C8.618 26.784-4.401 28.09-4.401 29.11v29.282l100.45-4.625V34.213L77.803 20.178H60.381l-25.726 5.013z" fill="#2C0F1F" mask="url(#t)"/></g><path d="M38 77.868c2.023-8.935 3.035-20.236 3.035-33.904C41.035 23.463 54.08 22 57.888 22c3.808 0 21.087.147 21.087 40.432 0 7.341 1.376 12.53 4.129 15.565 4.878 5.38-10.157 5.337-45.104-.13z" fill="#412224"/><g transform="translate(34 49)"><mask id="v" fill="#fff"><use xlink:href="#u"/></mask><use fill="#DEB552" xlink:href="#u"/><ellipse fill="#967134" mask="url(#v)" cx="22.293" cy=".847" rx="13.236" ry="17.444"/></g><ellipse fill="#DEB552" cx="54.5" cy="46.5" rx="12.5" ry="17.5"/><path d="M35.19 81.686c-5.428 9.402-9.88 16.92-13.354 22.555-5.211 8.452-12.783 18.49-6.391 24.033 6.391 5.542 15.921 1.564 18.435 1.564 2.515 0-3.463-1.577-3.463-6.227 0-3.1 1.155-4.915 3.463-5.446l-2.324-.912 3.635-7.707 1.896 8.619c-1.57 19.392-1.004 29.383 1.698 29.971 4.053.883 33.754 1.972 35.233 0 1.478-1.97.785-4.335 2.245-4.335s9.536.363 8.584 7.051c-.634 4.46-.26 7.175 1.125 8.148h15.325c1.62-25.23.44-44.27-3.537-57.115-5.966-19.27-11.444-22.883-14.783-24.47-3.34-1.587-13.433 1.54-20.318 6.632-6.884 5.091-14.428 6.655-21.603 2.612-4.784-2.696-6.739-4.354-5.865-4.973z" fill="#3A2B28"/><path d="M74.716 132.105c-1.335-.544-2.978.433-4.927 2.933-2.925 3.75-13.35 8.962-17.461 8.962-4.112 0-6.052-3.079-5.082-6.02.97-2.942 6.972-5.298 6.027-6.806-.945-1.507 1.104-4.08 6.224-5.349C64.616 124.556 70.38 124 73.06 124c1.788 0 2.34 2.702 1.655 8.105z" fill="#C4953E"/><path d="M30.325 127.321c1.526-.626 3.403.498 5.63 3.373C39.299 135.006 51.213 141 55.912 141s6.917-3.54 5.808-6.923c-1.11-3.383-7.968-6.092-6.888-7.826 1.08-1.735-1.262-4.692-7.113-6.152C41.868 118.64 35.28 118 32.216 118c-2.043 0-2.673 3.107-1.891 9.321z" fill="#E4BB58"/><path fill="url(#w)" opacity=".567" d="M0 0h120v158H0z"/></g></g></g><path d="M323.5 78c31.756 0 57.5 25.744 57.5 57.5V263H266V135.5c0-31.756 25.744-57.5 57.5-57.5zm196 0c31.756 0 57.5 25.744 57.5 57.5V263H462V135.5c0-31.756 25.744-57.5 57.5-57.5z" fill="#FFF"/><g opacity=".584"><path fill="url(#x)" d="M0 184.5L297 365l158.776-136L80 4z" transform="translate(266 78)"/><path fill="url(#y)" d="M198 184.5L626.276 434l27.5-205L267.306 0z" transform="translate(266 78)"/></g></g></svg>